<svg width="139" height="65" viewBox="0 0 139 65" fill="none" shape-rendering="geometricPrecision" xmlns="http://www.w3.org/2000/svg" aria-label="Envy Logo" role="img"><path d="M137.936 20.7809C137.181 26.032 131.912 31.5257 121.376 42.5132C118.155 45.8717 116.376 47.4583 114.105 50.8943C109.528 57.8168 107.68 65.0956 107.418 64.999C107.336 64.9688 107.577 63.8781 108.059 61.6979C108.151 61.2806 108.233 60.9207 108.298 60.6369C108.298 60.6369 108.682 58.8403 108.92 56.675C109.149 54.5858 109.402 52.2903 108.818 49.5939C108.417 47.7401 106.898 44.6022 106.898 44.6022C106.898 44.6022 107.854 45.0786 109.183 45.763C110.108 46.2394 111.438 46.7929 111.438 46.7929C111.438 46.7929 113.94 44.6693 115.188 43.1789C119.15 38.4464 120.395 33.2903 120.844 30.3374C119.931 31.4219 118.79 32.6197 118.619 32.791C115.195 36.386 111.772 39.3526 110.003 39.3526C108.52 39.3526 107.664 38.1545 107.664 36.6705C107.664 34.8446 108.406 32.8476 110.745 27.6557C110.834 27.4633 110.93 27.2571 111.029 27.0451C105.913 28.2218 99.6606 29.4818 96.7672 29.4818C93.8002 29.4818 91.1754 28.0554 90.548 25.5446C88.6649 29.0253 86.2686 32.3915 84.4428 34.6168C82.3318 37.2416 80.4487 39.3526 78.6228 39.3526C76.9116 39.3526 76.1696 37.6977 76.1696 36.2144C76.1696 34.3377 76.8439 31.402 77.7595 28.3593C68.7937 33.5819 57.5529 39.3523 52.7763 39.3523C51.2357 39.3523 49.1246 38.4964 49.1246 35.758C49.1246 35.1302 49.2389 34.5028 49.7523 33.0762L53.404 22.8628C51.3499 24.9169 48.2117 28.2834 43.9324 33.9321L40.7372 38.1542C39.8815 39.295 39.4251 39.809 38.7404 39.809C38.1697 39.809 37.7135 39.5805 37.371 39.1814L36.5154 38.3252C36.0586 37.869 36.0016 37.1273 36.4011 36.2713L39.8405 28.4865C26.7233 35.7444 14.3404 39.3523 5.70572 39.3523C2.68174 39.3523 0 38.0399 0 35.1302C0 32.3345 3.19523 29.653 6.6183 27.1995C8.44419 25.8868 9.1861 25.3164 9.47103 25.0885C9.6996 24.9169 9.6996 24.6887 9.47103 24.5747C4.50726 22.1212 3.02398 18.7553 3.02398 16.8149C3.02398 10.9386 18.0871 2.66506 25.276 2.66506C27.8436 2.66506 30.9815 3.63495 30.9815 7.68578C30.9815 9.79744 30.1256 12.4216 28.6995 15.3886C28.3 16.2445 27.2732 16.5867 26.4169 16.1872C25.5613 15.7881 25.2191 14.7609 25.6183 13.9049C26.9303 11.1092 27.5581 8.88422 27.5581 7.68578C27.5581 6.48766 26.988 6.08849 25.276 6.08849C18.5435 6.08849 6.44705 14.2474 6.44705 16.701C6.44705 17.3287 7.18911 19.0972 11.2402 21.6077C12.3813 22.3494 13.18 23.4906 13.18 24.746C13.18 26.0011 12.5526 27.0852 11.4114 27.9412C9.41433 29.4245 6.33336 31.4786 4.56458 33.3617C4.33601 33.6469 3.42306 34.5599 3.42306 35.1302C3.42306 35.3014 3.53736 35.9288 5.70572 35.9288C14.1499 35.9288 27.8436 31.8777 42.1644 23.1487C42.1791 23.1398 42.1941 23.133 42.2088 23.1245L43.7611 19.6107C44.1036 18.755 45.1308 18.3556 45.9864 18.755C46.8427 19.0972 47.2415 20.1244 46.8427 20.9803L41.9926 31.3643C44.5601 27.8842 46.7284 25.0882 48.2117 23.4336C51.4069 19.8389 54.0884 17.4996 55.8002 17.4996C56.5989 17.4996 57.7976 18.0131 57.7976 19.4967C57.7976 20.0101 57.6264 20.6948 57.3979 21.4365L52.7193 34.902C52.4341 35.8146 52.4911 35.9288 53.0048 35.9288C57.4472 35.9288 73.4719 27.0619 79.4509 23.3101C79.9514 21.9463 80.4517 20.678 80.9054 19.6107C81.2476 18.7553 82.2745 18.3559 83.1304 18.7553C83.9864 19.1545 84.3858 20.1244 83.9864 20.9803C82.2745 24.8599 80.1634 31.8211 79.707 34.845C83.3586 31.0794 87.9802 23.9473 91.2897 17.4429C91.6891 16.644 92.716 16.3588 93.5147 16.7013C94.3709 17.1005 94.7701 18.0703 94.4276 18.8693C93.9711 20.0104 93.2864 21.6077 93.2864 23.2056C93.2864 25.7731 95.683 26.0587 96.7672 26.0587C100.514 26.0587 107.659 24.359 112.938 23.1098C113.552 21.8807 114.194 20.628 114.796 19.497C115.252 18.6408 116.279 18.3559 117.135 18.812C117.991 19.2685 118.276 20.2957 117.82 21.0943C115.652 25.1454 112 32.677 111.487 34.7311C120.33 27.2565 123.982 20.6382 124.61 19.6107C125.123 18.812 125.922 18.3559 126.835 18.6977C127.691 19.0402 128.147 20.0101 127.805 20.9231L121.928 36.4426C123.457 35.0775 125.561 33.0685 127.834 30.4315C131.811 25.8166 134.962 22.1595 135.763 18.1381C137.596 8.93231 126.666 0.0509954 126.733 0.000141715C126.79 -0.0430533 139.525 9.74383 137.936 20.7809" fill="white"/></svg>