<svg width="473" height="136" viewBox="0 0 473 136" fill="none" shape-rendering="geometricPrecision" xmlns="http://www.w3.org/2000/svg" aria-label="Discover Your Sinful Style" role="img"><path d="M142.28 27.0001C144.64 27.0001 148.76 26.6401 152.12 23.2801C154.96 20.4401 155.96 16.6001 155.96 13.6801C155.96 10.7601 154.96 6.88007 152.12 4.04007C148.76 0.680069 144.64 0.320068 142.28 0.320068H137V27.0001H142.28ZM138.76 1.92007H142.24C149.24 1.92007 154.12 6.84007 154.12 13.6801C154.12 20.6001 149.28 25.4001 142.24 25.4001H138.76V1.92007Z" fill="#E4BE8C"/><path d="M161.007 10.6801V27.0001H162.607V10.6801H161.007ZM161.807 6.72007C162.607 6.72007 163.247 6.12007 163.247 5.24007C163.247 4.36007 162.607 3.76007 161.807 3.76007C161.007 3.76007 160.367 4.36007 160.367 5.24007C160.367 6.12007 161.007 6.72007 161.807 6.72007Z" fill="#E4BE8C"/><path d="M176.67 12.9601C175.91 11.2001 174.31 10.3201 172.39 10.3201C169.91 10.3201 168.03 12.0401 168.03 14.5201C168.03 15.4801 168.39 16.1601 168.75 16.6401C169.47 17.6001 170.67 18.1201 172.31 18.8001C174.79 19.8001 175.95 20.4801 175.95 22.3201C175.95 24.4401 174.39 25.9201 172.31 25.9201C170.51 25.9201 168.79 24.8001 168.23 22.6401L166.67 23.1201C167.35 25.8401 169.59 27.4401 172.31 27.4401C174.83 27.4401 177.63 25.9601 177.63 22.2401C177.63 21.3201 177.47 20.4401 176.79 19.6001C175.75 18.2801 174.23 17.8401 172.59 17.2001C170.99 16.5601 169.71 16.0401 169.71 14.4401C169.71 13.2401 170.63 11.8401 172.47 11.8401C173.63 11.8401 174.75 12.4001 175.31 13.6801L176.67 12.9601Z" fill="#E4BE8C"/><path d="M194.79 12.4001C192.55 10.5201 190.31 10.3201 189.15 10.3201C183.91 10.3201 180.67 14.1201 180.67 18.9601C180.67 23.8001 184.11 27.4401 189.03 27.4401C191.91 27.4401 193.91 26.1201 194.99 25.1601V23.0001C193.71 24.4001 191.67 25.9201 189.07 25.9201C185.91 25.9201 182.35 23.6001 182.35 18.9201C182.35 14.9201 185.15 11.8401 189.15 11.8401C191.83 11.8401 193.71 13.2801 194.79 14.5201V12.4001Z" fill="#E4BE8C"/><path d="M206.925 10.3201C202.085 10.3201 198.365 14.0401 198.365 18.8801C198.365 23.7201 202.085 27.4401 206.925 27.4401C211.765 27.4401 215.485 23.7201 215.485 18.8801C215.485 14.0401 211.765 10.3201 206.925 10.3201ZM206.925 25.9201C203.005 25.9201 200.045 22.8401 200.045 18.8801C200.045 14.9201 203.005 11.8401 206.925 11.8401C210.845 11.8401 213.805 14.9201 213.805 18.8801C213.805 22.8401 210.845 25.9201 206.925 25.9201Z" fill="#E4BE8C"/><path d="M217.626 10.6801L225.146 28.0001L232.586 10.6801H230.826L225.146 24.2401L219.386 10.6801H217.626Z" fill="#E4BE8C"/><path d="M250.372 19.0401C250.372 13.8401 247.052 10.3201 242.652 10.3201C238.652 10.3201 234.732 13.2401 234.732 18.9201C234.732 23.6801 237.692 27.4401 242.772 27.4401C246.812 27.4401 248.972 24.8401 249.932 23.0001L248.572 22.2001C247.532 24.3601 245.532 25.9201 242.892 25.9201C239.452 25.9201 236.412 23.2001 236.412 19.0401H250.372ZM236.532 17.5201C236.972 14.3601 239.332 11.8401 242.652 11.8401C245.892 11.8401 248.292 14.2801 248.692 17.5201H236.532Z" fill="#E4BE8C"/><path d="M255.108 27.0001H256.708V18.2401C256.708 16.2001 256.748 11.8401 260.028 11.8401C260.748 11.8401 261.068 12.0401 261.228 12.1601L262.028 10.7201C261.428 10.4001 260.748 10.3201 260.308 10.3201C258.548 10.3201 257.308 11.4001 256.708 12.8001V10.6801H255.108V27.0001Z" fill="#E4BE8C"/><path d="M276.195 36.2001H278.035L288.755 10.6801H286.915L280.955 25.2001L274.115 10.6801H272.275L280.035 27.2801L276.195 36.2001Z" fill="#E4BE8C"/><path d="M299.464 10.3201C294.624 10.3201 290.904 14.0401 290.904 18.8801C290.904 23.7201 294.624 27.4401 299.464 27.4401C304.304 27.4401 308.024 23.7201 308.024 18.8801C308.024 14.0401 304.304 10.3201 299.464 10.3201ZM299.464 25.9201C295.544 25.9201 292.584 22.8401 292.584 18.8801C292.584 14.9201 295.544 11.8401 299.464 11.8401C303.384 11.8401 306.344 14.9201 306.344 18.8801C306.344 22.8401 303.384 25.9201 299.464 25.9201Z" fill="#E4BE8C"/><path d="M312.725 10.6801V20.9601C312.725 22.2801 312.845 24.0001 313.965 25.4401C315.205 27.0401 317.165 27.4401 318.605 27.4401C320.045 27.4401 322.005 27.0401 323.245 25.4401C324.365 24.0001 324.485 22.2801 324.485 20.9601V10.6801H322.885V20.5201C322.885 21.6801 322.845 23.4001 321.845 24.6001C320.845 25.8001 319.365 25.9201 318.605 25.9201C317.845 25.9201 316.365 25.8001 315.365 24.6001C314.365 23.4001 314.325 21.6801 314.325 20.5201V10.6801H312.725Z" fill="#E4BE8C"/><path d="M330.264 27.0001H331.864V18.2401C331.864 16.2001 331.904 11.8401 335.184 11.8401C335.904 11.8401 336.224 12.0401 336.384 12.1601L337.184 10.7201C336.584 10.4001 335.904 10.3201 335.464 10.3201C333.704 10.3201 332.464 11.4001 331.864 12.8001V10.6801H330.264V27.0001Z" fill="#E4BE8C"/><path d="M41.472 113.264C40.704 105.872 34.944 100.496 28.704 96.368L21.408 91.568C12.576 85.808 11.616 83.6 11.616 80.336C11.616 75.728 13.728 73.04 20.544 73.04C26.592 73.04 29.856 73.712 29.856 82.352H40.992C40.992 66.8 37.152 62.48 20.832 62.48C5.088 62.48 0 70.064 0 80.24C0 92.24 7.968 96.368 16.032 102.032L22.464 106.544C29.376 111.344 29.856 113.456 29.856 117.008C29.856 122.192 28.224 125.072 20.544 125.072C12.192 125.072 11.328 122.48 11.328 114.608H0C0 131.216 4.32 135.728 20.544 135.728C35.616 135.728 41.664 128.624 41.664 117.2C41.664 115.952 41.568 114.608 41.472 113.264Z" fill="#E4BE8C"/><path d="M59.679 68.912C59.679 65.36 56.703 62.576 53.247 62.576C49.791 62.576 46.911 65.36 46.911 68.912C46.911 72.464 49.791 75.248 53.247 75.248C56.799 75.248 59.679 72.464 59.679 68.912ZM58.719 79.28H47.775V134H58.719V79.28Z" fill="#E4BE8C"/><path d="M107.867 63.92H96.9233V106.064C96.9233 106.256 96.7312 106.448 96.6352 106.448C96.4432 106.448 96.2513 106.256 96.1553 106.064L78.1073 63.92H67.1633V134H78.1073V92.432C78.1073 92.144 78.2992 92.048 78.4912 92.048C78.5872 92.048 78.7793 92.144 78.8753 92.336L96.9233 134H107.867V63.92Z" fill="#E4BE8C"/><path d="M148.955 63.824H115.067V134H125.915V111.152C125.915 109.712 126.971 108.56 128.315 108.56H145.115V97.616H128.219C126.971 97.616 126.011 96.368 126.011 95.216V76.304C126.011 75.152 127.163 73.808 128.411 73.808H148.955V63.824Z" fill="#E4BE8C"/><path d="M194.097 63.824H183.057V101.456C183.057 123.248 180.465 124.688 173.457 124.688C166.641 124.688 163.953 122.864 163.953 101.456V63.824H153.009V101.264C153.009 130.736 156.945 135.728 173.457 135.728C190.257 135.728 194.097 131.408 194.097 101.264V63.824Z" fill="#E4BE8C"/><path d="M235.9 124.208H214.972C212.86 124.208 211.516 122.96 211.516 121.04V63.92H199.804V134H235.9V124.208Z" fill="#E4BE8C"/><path d="M306.503 113.264C305.735 105.872 299.975 100.496 293.735 96.368L286.439 91.568C277.607 85.808 276.647 83.6 276.647 80.336C276.647 75.728 278.759 73.04 285.575 73.04C291.623 73.04 294.887 73.712 294.887 82.352H306.023C306.023 66.8 302.183 62.48 285.863 62.48C270.119 62.48 265.031 70.064 265.031 80.24C265.031 92.24 272.999 96.368 281.063 102.032L287.495 106.544C294.407 111.344 294.887 113.456 294.887 117.008C294.887 122.192 293.255 125.072 285.575 125.072C277.223 125.072 276.359 122.48 276.359 114.608H265.031C265.031 131.216 269.351 135.728 285.575 135.728C300.647 135.728 306.695 128.624 306.695 117.2C306.695 115.952 306.599 114.608 306.503 113.264Z" fill="#E4BE8C"/><path d="M348.552 63.824H308.424V74H321.192C322.44 74 323.016 74.96 323.016 76.304V134H333.96V76.4C333.96 75.44 334.536 74 336.072 74H348.552V63.824Z" fill="#E4BE8C"/><path d="M393.961 63.824H382.921V75.056C382.921 96.848 380.329 98.288 373.321 98.288C366.505 98.288 363.817 96.56 363.817 75.056V63.824H352.873V74.96C352.873 100.88 355.849 107.792 367.849 109.04V134H378.793V109.136C390.985 107.984 393.961 101.552 393.961 74.96V63.824Z" fill="#E4BE8C"/><path d="M434.743 124.208H413.815C411.703 124.208 410.359 122.96 410.359 121.04V63.92H398.647V134H434.743V124.208Z" fill="#E4BE8C"/><path d="M472.944 123.056H452.208C450.576 123.056 450 121.712 450 120.656V111.152C450 109.712 450.96 108.56 452.304 108.56H469.104V97.616H452.208C450.96 97.616 450 96.368 450 95.216V76.304C450 75.152 451.152 73.808 452.4 73.808H472.944V63.824H439.056V134H472.944V123.056Z" fill="#E4BE8C"/></svg>