<svg width="222" height="101" viewBox="0 0 222 101" fill="none" shape-rendering="geometricPrecision" xmlns="http://www.w3.org/2000/svg" aria-label="Joules Logo" role="img"><path d="M49.4529 7.74475C54.6196 9.02182 54.8139 4.41465 54.8139 4.41465C54.2795 -0.257193 51.1697 0.0176208 51.1697 0.0176208C50.2261 -0.0692202 49.2808 0.166672 48.4892 0.686589C47.6975 1.20651 47.1064 1.97957 46.8129 2.87892C46.5987 3.87098 46.7471 4.90679 47.2313 5.79918C47.7154 6.69156 48.5035 7.38166 49.4529 7.74475V7.74475Z" fill="white"/><path d="M203.805 66.1347L207.692 63.9847C207.692 63.9847 213.02 59.9756 213.62 69.9336C214.165 72.5991 214.517 75.3003 214.673 78.0163C214.673 78.0163 215.434 83.5934 210.818 83.8036C210.818 83.8036 202.088 81.3949 201.327 87.0367C201.327 87.0367 201.23 95.1195 214.284 89.607C214.284 89.607 223.176 87.4408 220.568 80.0855L217.183 61.9963C218.484 60.3336 219.407 58.4086 219.888 56.3545C219.888 56.3545 220.617 52.1676 215.029 51.7635C214.178 51.794 213.346 52.0216 212.598 52.4284C211.85 52.8353 211.207 53.4101 210.721 54.1075C210.721 54.1075 207.238 62.1903 183.77 71.2915C183.77 71.2915 176.465 73.7486 172.756 69.8527C172.934 70.0629 180.628 61.9478 181.292 61.2042C181.733 60.797 182.075 60.2931 182.288 59.7321C182.502 59.1711 182.582 58.5683 182.523 57.9711C182.296 56.8945 181.656 55.949 180.741 55.3361C179.538 54.6949 178.205 54.3329 176.842 54.2769C175.479 54.2209 174.122 54.4725 172.87 55.0128C167.071 57.1628 161.354 63.2087 164.674 69.6911C164.917 70.1599 165.144 70.2892 164.869 70.6449C164.515 70.9686 164.117 71.2408 163.686 71.4531C162.86 72.0351 162.067 72.5524 161.111 73.0697C159.183 74.1504 157.199 75.1271 155.167 75.9956C133.269 85.4363 126.791 53.3639 160.236 25.8825C160.236 25.8825 164.966 21.8896 165.63 19.7558C165.787 19.3202 165.808 18.8472 165.689 18.3995C165.571 17.9519 165.318 17.551 164.966 17.2501C162.083 14.9384 155.248 24.1204 154.276 25.4299C154.276 25.4299 123.956 59.6038 131.974 76.1411C139.991 92.6785 163.265 77.0787 163.265 77.0787C163.265 77.0787 164.885 76.125 166.861 74.7024C168.185 75.9266 169.768 76.8381 171.493 77.3697C180.077 79.8107 190.362 72.1482 203.805 66.1347V66.1347ZM170.424 65.7629C169.987 65.3289 169.712 64.7582 169.647 64.1463C169.625 63.6747 169.697 63.2035 169.858 62.7597C170.019 62.3158 170.267 61.9081 170.586 61.5598C171.017 61.0195 171.531 60.5504 172.108 60.1696C172.929 59.5955 173.83 59.1436 174.781 58.8278C175.394 58.637 176.044 58.5982 176.676 58.7147C177.162 58.7147 177.988 59.0218 178.02 59.5876C178.052 60.1534 177.275 60.9455 176.838 61.4143C176.4 61.8831 171.137 66.4418 171.056 66.361C170.82 66.1899 170.608 65.9888 170.424 65.7629V65.7629Z" fill="white"/><path d="M126.548 72.3585C125.246 70.4557 124.567 68.1965 124.604 65.8923C124.604 64.6637 124.928 62.837 124.977 60.59C125.066 58.5528 124.397 56.5548 123.098 54.9805C119.616 51.8768 115.454 60.008 113.996 61.9802C112.749 63.5968 111.534 65.3426 110.254 66.9915C109.558 67.913 104.634 73.3123 103.549 64.9547C103.549 64.9547 102.253 48.87 94.5278 47.6737C89.6287 47.8293 84.8058 48.9271 80.3235 50.9068C80.086 50.7321 79.8638 50.5374 79.6594 50.3249C79.4327 50.1147 79.1898 49.8884 78.9468 49.6944C78.3507 49.2134 77.6913 48.8163 76.987 48.5143C75.4301 47.9094 73.7934 47.5337 72.1281 47.3989C70.5158 47.2105 68.8905 47.1565 67.2692 47.2372C66.508 47.2372 65.7629 47.3504 65.0179 47.4151C58.3766 48.1489 51.8026 49.3974 45.3555 51.1493C46.1491 49.1609 48.0603 43.794 49.356 39.8334C50.9756 34.8221 52.8706 29.7623 53.2431 24.4762C53.4537 22.3908 54.474 17.7998 50.6031 17.7998C46.7321 17.7998 47.3638 24.6217 47.3638 24.6217C46.7321 35.9375 45.5822 44.6346 42.3105 51.7313C40.8852 52.1192 39.0712 52.5557 37.4516 53.0083C28.5422 55.4596 20.2595 59.7804 13.157 65.6821C9.30586 68.7078 6.01667 72.3847 3.43915 76.5454C1.10919 79.9377 -0.0920984 83.9758 0.00551035 88.0876C0.137844 90.3276 0.876744 92.4898 2.14344 94.3436C3.34802 96.0598 4.94767 97.4624 6.808 98.4335C8.58181 99.403 10.5538 99.9558 12.5739 100.05C14.5216 100.133 16.4547 99.6805 18.1617 98.7406C19.424 97.9566 20.5737 97.0049 21.5791 95.9117C25.6725 91.6144 29.1747 86.7924 31.9934 81.5728C33.3863 79.148 34.6658 76.7232 35.9939 74.169C37.5164 71.1084 38.9579 68.0046 40.3184 64.8577C41.0148 63.2411 41.6951 61.6246 42.3591 60.008C42.683 59.1836 42.8936 58.3915 43.2175 57.5185L43.7034 56.1121C49.0373 54.1037 54.5238 52.5252 60.1104 51.3918C63.1877 50.826 72.7598 49.4358 76.0153 53.1053C74.9949 53.6711 72.3549 54.932 71.2535 55.5948C71.2535 55.5948 60.078 63.0471 54.5064 70.8551C51.008 75.7048 49.3884 81.783 54.5064 83.7875C54.5064 83.7875 71.5612 91.9996 81.6516 63.1118C81.8136 62.5298 82.1861 61.0588 82.4776 59.5231C82.7123 58.1807 82.7123 56.8079 82.4776 55.4655C82.4776 55.2069 82.3804 54.932 82.3481 54.6249C84.3277 53.7291 86.4115 53.0828 88.5513 52.7012C88.5513 52.7012 96.7629 50.4704 97.929 68.0908C97.929 68.0908 98.4311 82.5266 110.886 72.0028C110.886 72.0028 116.555 65.9731 117.591 69.0446C117.591 69.0446 118.353 74.8156 120.831 77.386C120.831 77.386 124.07 80.7484 126.888 80.0048C128.135 79.6976 128.767 79.0187 128.897 76.3837C128.929 76.4645 128.994 74.7833 126.548 72.3585V72.3585ZM26.843 82.3326C24.7183 85.9333 22.0216 89.1654 18.8581 91.9026C17.0661 93.4727 14.8747 94.5187 12.5253 94.9256C8.92973 95.2327 6.24113 94.9256 3.77927 90.7549C1.31742 86.5842 4.21658 82.1871 8.10371 77.7416C15.3111 69.3355 24.4621 63.8231 34.5848 59.5069C35.6538 59.0542 36.7228 58.6339 37.8241 58.2298L40.3994 57.3245C40.3994 57.3245 31.5075 75.2683 26.843 82.3326V82.3326ZM65.3418 78.9864C62.961 81.1849 58.6203 81.2495 58.4745 78.0811C58.4745 78.0811 58.7823 66.9269 76.1286 57.4377C77.0032 64.6799 69.9578 75.0743 65.3418 78.9864V78.9864Z" fill="white"/></svg>